{
    "asset" : {
        "generator" : "Khronos glTF Blender I/O v1.6.16",
        "version" : "2.0"
    },
    "scene" : 0,
    "scenes" : [
        {
            "name" : "Scene",
            "nodes" : [
                0,
                1,
                2
            ]
        }
    ],
    "nodes" : [
        {
            "mesh" : 0,
            "name" : "Chicken",
            "rotation" : [
                0,
                -0.24605615437030792,
                0,
                0.9692556858062744
            ]
        },
        {
            "name" : "Lamp",
            "rotation" : [
                -0.5266160368919373,
                -0.10992924124002457,
                -0.17258930206298828,
                -0.8251086473464966
            ],
            "translation" : [
                -0.5021758079528809,
                0.4023744761943817,
                0.6320803165435791
            ]
        },
        {
            "name" : "Camera",
            "rotation" : [
                0.6553587317466736,
                -0.13640756905078888,
                0.12198994308710098,
                0.7328140139579773
            ],
            "translation" : [
                -0.34872671961784363,
                0.32103875279426575,
                0.868716299533844
            ]
        }
    ],
    "materials" : [
        {
            "doubleSided" : true,
            "name" : "Feathers",
            "pbrMetallicRoughness" : {
                "baseColorFactor" : [
                    0.800000011920929,
                    0.800000011920929,
                    0.800000011920929,
                    1
                ],
                "metallicFactor" : 0
            }
        },
        {
            "doubleSided" : true,
            "name" : "Beak/Legs",
            "pbrMetallicRoughness" : {
                "baseColorFactor" : [
                    0.9386858344078064,
                    0.6375970244407654,
                    0.11193244159221649,
                    1
                ],
                "metallicFactor" : 0,
                "roughnessFactor" : 0.5
            }
        },
        {
            "doubleSided" : true,
            "name" : "Comb",
            "pbrMetallicRoughness" : {
                "baseColorFactor" : [
                    0.42869052290916443,
                    0.017641952261328697,
                    0.016807377338409424,
                    1
                ],
                "metallicFactor" : 0,
                "roughnessFactor" : 0.7653061151504517
            }
        },
        {
            "doubleSided" : true,
            "name" : "Eyes",
            "pbrMetallicRoughness" : {
                "baseColorFactor" : [
                    0.14731401205062866,
                    0.14731401205062866,
                    0.14731401205062866,
                    1
                ],
                "metallicFactor" : 0,
                "roughnessFactor" : 0.5
            }
        }
    ],
    "meshes" : [
        {
            "name" : "Chicken",
            "primitives" : [
                {
                    "attributes" : {
                        "POSITION" : 0,
                        "NORMAL" : 1,
                        "TEXCOORD_0" : 2
                    },
                    "indices" : 3,
                    "material" : 0
                },
                {
                    "attributes" : {
                        "POSITION" : 4,
                        "NORMAL" : 5,
                        "TEXCOORD_0" : 6
                    },
                    "indices" : 7,
                    "material" : 1
                },
                {
                    "attributes" : {
                        "POSITION" : 8,
                        "NORMAL" : 9,
                        "TEXCOORD_0" : 10
                    },
                    "indices" : 11,
                    "material" : 2
                },
                {
                    "attributes" : {
                        "POSITION" : 12,
                        "NORMAL" : 13,
                        "TEXCOORD_0" : 14
                    },
                    "indices" : 15,
                    "material" : 3
                }
            ]
        }
    ],
    "accessors" : [
        {
            "bufferView" : 0,
            "componentType" : 5126,
            "count" : 1072,
            "max" : [
                0.19347357749938965,
                0.3910621404647827,
                0.11155524849891663
            ],
            "min" : [
                -0.1782444268465042,
                0.05661027133464813,
                -0.11256948858499527
            ],
            "type" : "VEC3"
        },
        {
            "bufferView" : 1,
            "componentType" : 5126,
            "count" : 1072,
            "type" : "VEC3"
        },
        {
            "bufferView" : 2,
            "componentType" : 5126,
            "count" : 1072,
            "type" : "VEC2"
        },
        {
            "bufferView" : 3,
            "componentType" : 5123,
            "count" : 1608,
            "type" : "SCALAR"
        },
        {
            "bufferView" : 4,
            "componentType" : 5126,
            "count" : 388,
            "max" : [
                0.06958173215389252,
                0.3611135184764862,
                0.027955129742622375
            ],
            "min" : [
                -0.1782444268465042,
                -0.0007540881633758545,
                -0.02662213146686554
            ],
            "type" : "VEC3"
        },
        {
            "bufferView" : 5,
            "componentType" : 5126,
            "count" : 388,
            "type" : "VEC3"
        },
        {
            "bufferView" : 6,
            "componentType" : 5126,
            "count" : 388,
            "type" : "VEC2"
        },
        {
            "bufferView" : 7,
            "componentType" : 5123,
            "count" : 576,
            "type" : "SCALAR"
        },
        {
            "bufferView" : 8,
            "componentType" : 5126,
            "count" : 40,
            "max" : [
                -0.12299802154302597,
                0.3997412323951721,
                0.004889227915555239
            ],
            "min" : [
                -0.15233397483825684,
                0.31237250566482544,
                -0.004835351835936308
            ],
            "type" : "VEC3"
        },
        {
            "bufferView" : 9,
            "componentType" : 5126,
            "count" : 40,
            "type" : "VEC3"
        },
        {
            "bufferView" : 10,
            "componentType" : 5126,
            "count" : 40,
            "type" : "VEC2"
        },
        {
            "bufferView" : 11,
            "componentType" : 5123,
            "count" : 60,
            "type" : "SCALAR"
        },
        {
            "bufferView" : 12,
            "componentType" : 5126,
            "count" : 8,
            "max" : [
                -0.1406974047422409,
                0.37181583046913147,
                0.012032047845423222
            ],
            "min" : [
                -0.14478375017642975,
                0.36788225173950195,
                -0.011987471953034401
            ],
            "type" : "VEC3"
        },
        {
            "bufferView" : 13,
            "componentType" : 5126,
            "count" : 8,
            "type" : "VEC3"
        },
        {
            "bufferView" : 14,
            "componentType" : 5126,
            "count" : 8,
            "type" : "VEC2"
        },
        {
            "bufferView" : 15,
            "componentType" : 5123,
            "count" : 12,
            "type" : "SCALAR"
        }
    ],
    "bufferViews" : [
        {
            "buffer" : 0,
            "byteLength" : 12864,
            "byteOffset" : 0
        },
        {
            "buffer" : 0,
            "byteLength" : 12864,
            "byteOffset" : 12864
        },
        {
            "buffer" : 0,
            "byteLength" : 8576,
            "byteOffset" : 25728
        },
        {
            "buffer" : 0,
            "byteLength" : 3216,
            "byteOffset" : 34304
        },
        {
            "buffer" : 0,
            "byteLength" : 4656,
            "byteOffset" : 37520
        },
        {
            "buffer" : 0,
            "byteLength" : 4656,
            "byteOffset" : 42176
        },
        {
            "buffer" : 0,
            "byteLength" : 3104,
            "byteOffset" : 46832
        },
        {
            "buffer" : 0,
            "byteLength" : 1152,
            "byteOffset" : 49936
        },
        {
            "buffer" : 0,
            "byteLength" : 480,
            "byteOffset" : 51088
        },
        {
            "buffer" : 0,
            "byteLength" : 480,
            "byteOffset" : 51568
        },
        {
            "buffer" : 0,
            "byteLength" : 320,
            "byteOffset" : 52048
        },
        {
            "buffer" : 0,
            "byteLength" : 120,
            "byteOffset" : 52368
        },
        {
            "buffer" : 0,
            "byteLength" : 96,
            "byteOffset" : 52488
        },
        {
            "buffer" : 0,
            "byteLength" : 96,
            "byteOffset" : 52584
        },
        {
            "buffer" : 0,
            "byteLength" : 64,
            "byteOffset" : 52680
        },
        {
            "buffer" : 0,
            "byteLength" : 24,
            "byteOffset" : 52744
        }
    ],
    "buffers" : [
        {
            "byteLength" : 52768,
            "uri" : "data:application/octet-stream;base64,"
        }
    ]
}
